<svg xmlns="http://www.w3.org/2000/svg" width="820" height="520">
<rect width="100%" height="100%" fill="white"/>
<text x="410" y="34" font-size="22" text-anchor="middle" font-family="Arial" fill="#111827">Good Combined Generator histogram</text>
<line x1="72" y1="139" x2="788" y2="139" stroke="#dbeafe"/>
<line x1="72" y1="216" x2="788" y2="216" stroke="#dbeafe"/>
<line x1="72" y1="293" x2="788" y2="293" stroke="#dbeafe"/>
<line x1="72" y1="370" x2="788" y2="370" stroke="#dbeafe"/>
<line x1="72" y1="448" x2="788" y2="448" stroke="#111827"/>
<line x1="72" y1="62" x2="72" y2="448" stroke="#111827"/>
<rect x="72" y="68.0301" width="30.1" height="379.97" fill="#2563eb"/>
<text x="87.05" y="468" font-size="11" text-anchor="middle" font-family="Arial" fill="#111827">0</text>
<rect x="108.1" y="63.8319" width="30.1" height="384.168" fill="#2563eb"/>
<text x="123.15" y="468" font-size="11" text-anchor="middle" font-family="Arial" fill="#111827">1</text>
<rect x="144.2" y="66.1981" width="30.1" height="381.802" fill="#2563eb"/>
<text x="159.25" y="468" font-size="11" text-anchor="middle" font-family="Arial" fill="#111827">2</text>
<rect x="180.3" y="67.6484" width="30.1" height="380.352" fill="#2563eb"/>
<text x="195.35" y="468" font-size="11" text-anchor="middle" font-family="Arial" fill="#111827">3</text>
<rect x="216.4" y="62.1527" width="30.1" height="385.847" fill="#2563eb"/>
<text x="231.45" y="468" font-size="11" text-anchor="middle" font-family="Arial" fill="#111827">4</text>
<rect x="252.5" y="62" width="30.1" height="386" fill="#2563eb"/>
<text x="267.55" y="468" font-size="11" text-anchor="middle" font-family="Arial" fill="#111827">5</text>
<rect x="288.6" y="67.9537" width="30.1" height="380.046" fill="#2563eb"/>
<text x="303.65" y="468" font-size="11" text-anchor="middle" font-family="Arial" fill="#111827">6</text>
<rect x="324.7" y="62.3053" width="30.1" height="385.695" fill="#2563eb"/>
<text x="339.75" y="468" font-size="11" text-anchor="middle" font-family="Arial" fill="#111827">7</text>
<rect x="360.8" y="62.6106" width="30.1" height="385.389" fill="#2563eb"/>
<text x="375.85" y="468" font-size="11" text-anchor="middle" font-family="Arial" fill="#111827">8</text>
<rect x="396.9" y="67.8774" width="30.1" height="380.123" fill="#2563eb"/>
<text x="411.95" y="468" font-size="11" text-anchor="middle" font-family="Arial" fill="#111827">9</text>
<rect x="433" y="74.8234" width="30.1" height="373.177" fill="#2563eb"/>
<text x="448.05" y="468" font-size="11" text-anchor="middle" font-family="Arial" fill="#111827">10</text>
<rect x="469.1" y="69.0987" width="30.1" height="378.901" fill="#2563eb"/>
<text x="484.15" y="468" font-size="11" text-anchor="middle" font-family="Arial" fill="#111827">11</text>
<rect x="505.2" y="68.8697" width="30.1" height="379.13" fill="#2563eb"/>
<text x="520.25" y="468" font-size="11" text-anchor="middle" font-family="Arial" fill="#111827">12</text>
<rect x="541.3" y="67.7247" width="30.1" height="380.275" fill="#2563eb"/>
<text x="556.35" y="468" font-size="11" text-anchor="middle" font-family="Arial" fill="#111827">13</text>
<rect x="577.4" y="62.8396" width="30.1" height="385.16" fill="#2563eb"/>
<text x="592.45" y="468" font-size="11" text-anchor="middle" font-family="Arial" fill="#111827">14</text>
<rect x="613.5" y="70.1673" width="30.1" height="377.833" fill="#2563eb"/>
<text x="628.55" y="468" font-size="11" text-anchor="middle" font-family="Arial" fill="#111827">15</text>
<rect x="649.6" y="64.5952" width="30.1" height="383.405" fill="#2563eb"/>
<text x="664.65" y="468" font-size="11" text-anchor="middle" font-family="Arial" fill="#111827">16</text>
<rect x="685.7" y="71.0833" width="30.1" height="376.917" fill="#2563eb"/>
<text x="700.75" y="468" font-size="11" text-anchor="middle" font-family="Arial" fill="#111827">17</text>
<rect x="721.8" y="62.9923" width="30.1" height="385.008" fill="#2563eb"/>
<text x="736.85" y="468" font-size="11" text-anchor="middle" font-family="Arial" fill="#111827">18</text>
<rect x="757.9" y="64.2136" width="30.1" height="383.786" fill="#2563eb"/>
<text x="772.95" y="468" font-size="11" text-anchor="middle" font-family="Arial" fill="#111827">19</text>
<text x="410" y="500" font-size="16" text-anchor="middle" font-family="Arial" fill="#111827">Bucket</text>
<text x="22" y="260" font-size="16" text-anchor="middle" font-family="Arial" transform="rotate(-90 22 260)" fill="#111827">Count</text>
</svg>
