<svg xmlns="http://www.w3.org/2000/svg" width="820" height="520">
<rect width="100%" height="100%" fill="white"/>
<text x="410" y="34" font-size="22" text-anchor="middle" font-family="Arial" fill="#111827">XorshiftStar64 histogram</text>
<line x1="72" y1="139" x2="788" y2="139" stroke="#dbeafe"/>
<line x1="72" y1="216" x2="788" y2="216" stroke="#dbeafe"/>
<line x1="72" y1="293" x2="788" y2="293" stroke="#dbeafe"/>
<line x1="72" y1="370" x2="788" y2="370" stroke="#dbeafe"/>
<line x1="72" y1="448" x2="788" y2="448" stroke="#111827"/>
<line x1="72" y1="62" x2="72" y2="448" stroke="#111827"/>
<rect x="72" y="67.5997" width="30.1" height="380.4" fill="#2563eb"/>
<text x="87.05" y="468" font-size="11" text-anchor="middle" font-family="Arial" fill="#111827">0</text>
<rect x="108.1" y="72.594" width="30.1" height="375.406" fill="#2563eb"/>
<text x="123.15" y="468" font-size="11" text-anchor="middle" font-family="Arial" fill="#111827">1</text>
<rect x="144.2" y="65.8592" width="30.1" height="382.141" fill="#2563eb"/>
<text x="159.25" y="468" font-size="11" text-anchor="middle" font-family="Arial" fill="#111827">2</text>
<rect x="180.3" y="73.6534" width="30.1" height="374.347" fill="#2563eb"/>
<text x="195.35" y="468" font-size="11" text-anchor="middle" font-family="Arial" fill="#111827">3</text>
<rect x="216.4" y="68.7348" width="30.1" height="379.265" fill="#2563eb"/>
<text x="231.45" y="468" font-size="11" text-anchor="middle" font-family="Arial" fill="#111827">4</text>
<rect x="252.5" y="76.3776" width="30.1" height="371.622" fill="#2563eb"/>
<text x="267.55" y="468" font-size="11" text-anchor="middle" font-family="Arial" fill="#111827">5</text>
<rect x="288.6" y="76.4532" width="30.1" height="371.547" fill="#2563eb"/>
<text x="303.65" y="468" font-size="11" text-anchor="middle" font-family="Arial" fill="#111827">6</text>
<rect x="324.7" y="67.4483" width="30.1" height="380.552" fill="#2563eb"/>
<text x="339.75" y="468" font-size="11" text-anchor="middle" font-family="Arial" fill="#111827">7</text>
<rect x="360.8" y="62" width="30.1" height="386" fill="#2563eb"/>
<text x="375.85" y="468" font-size="11" text-anchor="middle" font-family="Arial" fill="#111827">8</text>
<rect x="396.9" y="67.978" width="30.1" height="380.022" fill="#2563eb"/>
<text x="411.95" y="468" font-size="11" text-anchor="middle" font-family="Arial" fill="#111827">9</text>
<rect x="433" y="64.1188" width="30.1" height="383.881" fill="#2563eb"/>
<text x="448.05" y="468" font-size="11" text-anchor="middle" font-family="Arial" fill="#111827">10</text>
<rect x="469.1" y="64.5728" width="30.1" height="383.427" fill="#2563eb"/>
<text x="484.15" y="468" font-size="11" text-anchor="middle" font-family="Arial" fill="#111827">11</text>
<rect x="505.2" y="73.1237" width="30.1" height="374.876" fill="#2563eb"/>
<text x="520.25" y="468" font-size="11" text-anchor="middle" font-family="Arial" fill="#111827">12</text>
<rect x="541.3" y="64.7998" width="30.1" height="383.2" fill="#2563eb"/>
<text x="556.35" y="468" font-size="11" text-anchor="middle" font-family="Arial" fill="#111827">13</text>
<rect x="577.4" y="74.4101" width="30.1" height="373.59" fill="#2563eb"/>
<text x="592.45" y="468" font-size="11" text-anchor="middle" font-family="Arial" fill="#111827">14</text>
<rect x="613.5" y="74.1831" width="30.1" height="373.817" fill="#2563eb"/>
<text x="628.55" y="468" font-size="11" text-anchor="middle" font-family="Arial" fill="#111827">15</text>
<rect x="649.6" y="68.6591" width="30.1" height="379.341" fill="#2563eb"/>
<text x="664.65" y="468" font-size="11" text-anchor="middle" font-family="Arial" fill="#111827">16</text>
<rect x="685.7" y="65.6322" width="30.1" height="382.368" fill="#2563eb"/>
<text x="700.75" y="468" font-size="11" text-anchor="middle" font-family="Arial" fill="#111827">17</text>
<rect x="721.8" y="75.0155" width="30.1" height="372.985" fill="#2563eb"/>
<text x="736.85" y="468" font-size="11" text-anchor="middle" font-family="Arial" fill="#111827">18</text>
<rect x="757.9" y="69.6428" width="30.1" height="378.357" fill="#2563eb"/>
<text x="772.95" y="468" font-size="11" text-anchor="middle" font-family="Arial" fill="#111827">19</text>
<text x="410" y="500" font-size="16" text-anchor="middle" font-family="Arial" fill="#111827">Bucket</text>
<text x="22" y="260" font-size="16" text-anchor="middle" font-family="Arial" transform="rotate(-90 22 260)" fill="#111827">Count</text>
</svg>
