<svg xmlns="http://www.w3.org/2000/svg" width="820" height="520">
<rect width="100%" height="100%" fill="white"/>
<text x="410" y="34" font-size="22" text-anchor="middle" font-family="Arial" fill="#111827">LCG with even increment histogram</text>
<line x1="72" y1="139" x2="788" y2="139" stroke="#dbeafe"/>
<line x1="72" y1="216" x2="788" y2="216" stroke="#dbeafe"/>
<line x1="72" y1="293" x2="788" y2="293" stroke="#dbeafe"/>
<line x1="72" y1="370" x2="788" y2="370" stroke="#dbeafe"/>
<line x1="72" y1="448" x2="788" y2="448" stroke="#111827"/>
<line x1="72" y1="62" x2="72" y2="448" stroke="#111827"/>
<rect x="72" y="76.2685" width="30.1" height="371.732" fill="#2563eb"/>
<text x="87.05" y="468" font-size="11" text-anchor="middle" font-family="Arial" fill="#111827">0</text>
<rect x="108.1" y="76.4938" width="30.1" height="371.506" fill="#2563eb"/>
<text x="123.15" y="468" font-size="11" text-anchor="middle" font-family="Arial" fill="#111827">1</text>
<rect x="144.2" y="66.8813" width="30.1" height="381.119" fill="#2563eb"/>
<text x="159.25" y="468" font-size="11" text-anchor="middle" font-family="Arial" fill="#111827">2</text>
<rect x="180.3" y="76.4187" width="30.1" height="371.581" fill="#2563eb"/>
<text x="195.35" y="468" font-size="11" text-anchor="middle" font-family="Arial" fill="#111827">3</text>
<rect x="216.4" y="68.0078" width="30.1" height="379.992" fill="#2563eb"/>
<text x="231.45" y="468" font-size="11" text-anchor="middle" font-family="Arial" fill="#111827">4</text>
<rect x="252.5" y="68.0078" width="30.1" height="379.992" fill="#2563eb"/>
<text x="267.55" y="468" font-size="11" text-anchor="middle" font-family="Arial" fill="#111827">5</text>
<rect x="288.6" y="79.6479" width="30.1" height="368.352" fill="#2563eb"/>
<text x="303.65" y="468" font-size="11" text-anchor="middle" font-family="Arial" fill="#111827">6</text>
<rect x="324.7" y="68.5335" width="30.1" height="379.467" fill="#2563eb"/>
<text x="339.75" y="468" font-size="11" text-anchor="middle" font-family="Arial" fill="#111827">7</text>
<rect x="360.8" y="73.1895" width="30.1" height="374.811" fill="#2563eb"/>
<text x="375.85" y="468" font-size="11" text-anchor="middle" font-family="Arial" fill="#111827">8</text>
<rect x="396.9" y="69.735" width="30.1" height="378.265" fill="#2563eb"/>
<text x="411.95" y="468" font-size="11" text-anchor="middle" font-family="Arial" fill="#111827">9</text>
<rect x="433" y="70.2607" width="30.1" height="377.739" fill="#2563eb"/>
<text x="448.05" y="468" font-size="11" text-anchor="middle" font-family="Arial" fill="#111827">10</text>
<rect x="469.1" y="62" width="30.1" height="386" fill="#2563eb"/>
<text x="484.15" y="468" font-size="11" text-anchor="middle" font-family="Arial" fill="#111827">11</text>
<rect x="505.2" y="72.7389" width="30.1" height="375.261" fill="#2563eb"/>
<text x="520.25" y="468" font-size="11" text-anchor="middle" font-family="Arial" fill="#111827">12</text>
<rect x="541.3" y="72.5887" width="30.1" height="375.411" fill="#2563eb"/>
<text x="556.35" y="468" font-size="11" text-anchor="middle" font-family="Arial" fill="#111827">13</text>
<rect x="577.4" y="76.8693" width="30.1" height="371.131" fill="#2563eb"/>
<text x="592.45" y="468" font-size="11" text-anchor="middle" font-family="Arial" fill="#111827">14</text>
<rect x="613.5" y="71.3872" width="30.1" height="376.613" fill="#2563eb"/>
<text x="628.55" y="468" font-size="11" text-anchor="middle" font-family="Arial" fill="#111827">15</text>
<rect x="649.6" y="79.6479" width="30.1" height="368.352" fill="#2563eb"/>
<text x="664.65" y="468" font-size="11" text-anchor="middle" font-family="Arial" fill="#111827">16</text>
<rect x="685.7" y="75.4424" width="30.1" height="372.558" fill="#2563eb"/>
<text x="700.75" y="468" font-size="11" text-anchor="middle" font-family="Arial" fill="#111827">17</text>
<rect x="721.8" y="69.0591" width="30.1" height="378.941" fill="#2563eb"/>
<text x="736.85" y="468" font-size="11" text-anchor="middle" font-family="Arial" fill="#111827">18</text>
<rect x="757.9" y="77.0946" width="30.1" height="370.905" fill="#2563eb"/>
<text x="772.95" y="468" font-size="11" text-anchor="middle" font-family="Arial" fill="#111827">19</text>
<text x="410" y="500" font-size="16" text-anchor="middle" font-family="Arial" fill="#111827">Bucket</text>
<text x="22" y="260" font-size="16" text-anchor="middle" font-family="Arial" transform="rotate(-90 22 260)" fill="#111827">Count</text>
</svg>
