<svg xmlns="http://www.w3.org/2000/svg" width="820" height="520">
<rect width="100%" height="100%" fill="white"/>
<text x="410" y="34" font-size="22" text-anchor="middle" font-family="Arial" fill="#111827">Good PCG32 histogram</text>
<line x1="72" y1="139" x2="788" y2="139" stroke="#dbeafe"/>
<line x1="72" y1="216" x2="788" y2="216" stroke="#dbeafe"/>
<line x1="72" y1="293" x2="788" y2="293" stroke="#dbeafe"/>
<line x1="72" y1="370" x2="788" y2="370" stroke="#dbeafe"/>
<line x1="72" y1="448" x2="788" y2="448" stroke="#111827"/>
<line x1="72" y1="62" x2="72" y2="448" stroke="#111827"/>
<rect x="72" y="73.8248" width="30.1" height="374.175" fill="#2563eb"/>
<text x="87.05" y="468" font-size="11" text-anchor="middle" font-family="Arial" fill="#111827">0</text>
<rect x="108.1" y="68.4773" width="30.1" height="379.523" fill="#2563eb"/>
<text x="123.15" y="468" font-size="11" text-anchor="middle" font-family="Arial" fill="#111827">1</text>
<rect x="144.2" y="68.6279" width="30.1" height="379.372" fill="#2563eb"/>
<text x="159.25" y="468" font-size="11" text-anchor="middle" font-family="Arial" fill="#111827">2</text>
<rect x="180.3" y="72.7703" width="30.1" height="375.23" fill="#2563eb"/>
<text x="195.35" y="468" font-size="11" text-anchor="middle" font-family="Arial" fill="#111827">3</text>
<rect x="216.4" y="65.6152" width="30.1" height="382.385" fill="#2563eb"/>
<text x="231.45" y="468" font-size="11" text-anchor="middle" font-family="Arial" fill="#111827">4</text>
<rect x="252.5" y="63.0544" width="30.1" height="384.946" fill="#2563eb"/>
<text x="267.55" y="468" font-size="11" text-anchor="middle" font-family="Arial" fill="#111827">5</text>
<rect x="288.6" y="84.3692" width="30.1" height="363.631" fill="#2563eb"/>
<text x="303.65" y="468" font-size="11" text-anchor="middle" font-family="Arial" fill="#111827">6</text>
<rect x="324.7" y="68.2513" width="30.1" height="379.749" fill="#2563eb"/>
<text x="339.75" y="468" font-size="11" text-anchor="middle" font-family="Arial" fill="#111827">7</text>
<rect x="360.8" y="75.0299" width="30.1" height="372.97" fill="#2563eb"/>
<text x="375.85" y="468" font-size="11" text-anchor="middle" font-family="Arial" fill="#111827">8</text>
<rect x="396.9" y="67.1216" width="30.1" height="380.878" fill="#2563eb"/>
<text x="411.95" y="468" font-size="11" text-anchor="middle" font-family="Arial" fill="#111827">9</text>
<rect x="433" y="71.1887" width="30.1" height="376.811" fill="#2563eb"/>
<text x="448.05" y="468" font-size="11" text-anchor="middle" font-family="Arial" fill="#111827">10</text>
<rect x="469.1" y="78.9463" width="30.1" height="369.054" fill="#2563eb"/>
<text x="484.15" y="468" font-size="11" text-anchor="middle" font-family="Arial" fill="#111827">11</text>
<rect x="505.2" y="72.6197" width="30.1" height="375.38" fill="#2563eb"/>
<text x="520.25" y="468" font-size="11" text-anchor="middle" font-family="Arial" fill="#111827">12</text>
<rect x="541.3" y="68.7785" width="30.1" height="379.221" fill="#2563eb"/>
<text x="556.35" y="468" font-size="11" text-anchor="middle" font-family="Arial" fill="#111827">13</text>
<rect x="577.4" y="62" width="30.1" height="386" fill="#2563eb"/>
<text x="592.45" y="468" font-size="11" text-anchor="middle" font-family="Arial" fill="#111827">14</text>
<rect x="613.5" y="62.0753" width="30.1" height="385.925" fill="#2563eb"/>
<text x="628.55" y="468" font-size="11" text-anchor="middle" font-family="Arial" fill="#111827">15</text>
<rect x="649.6" y="79.8501" width="30.1" height="368.15" fill="#2563eb"/>
<text x="664.65" y="468" font-size="11" text-anchor="middle" font-family="Arial" fill="#111827">16</text>
<rect x="685.7" y="77.7413" width="30.1" height="370.259" fill="#2563eb"/>
<text x="700.75" y="468" font-size="11" text-anchor="middle" font-family="Arial" fill="#111827">17</text>
<rect x="721.8" y="74.4273" width="30.1" height="373.573" fill="#2563eb"/>
<text x="736.85" y="468" font-size="11" text-anchor="middle" font-family="Arial" fill="#111827">18</text>
<rect x="757.9" y="73.5235" width="30.1" height="374.476" fill="#2563eb"/>
<text x="772.95" y="468" font-size="11" text-anchor="middle" font-family="Arial" fill="#111827">19</text>
<text x="410" y="500" font-size="16" text-anchor="middle" font-family="Arial" fill="#111827">Bucket</text>
<text x="22" y="260" font-size="16" text-anchor="middle" font-family="Arial" transform="rotate(-90 22 260)" fill="#111827">Count</text>
</svg>
